<svg xmlns="http://www.w3.org/2000/svg" viewBox="0 0 525.483 359.753">
  <defs>
    <style>
      .cls-1, .cls-20, .cls-21, .cls-23, .cls-9 {
        fill: none;
      }

      .cls-1 {
        stroke: #707070;
      }

      .cls-2 {
        fill: #165871;
      }

      .cls-3 {
        fill: #1b3e2e;
      }

      .cls-24, .cls-4 {
        fill: #454644;
      }

      .cls-5 {
        fill: #070134;
      }

      .cls-6 {
        fill: #4d0303;
      }

      .cls-10, .cls-11, .cls-12, .cls-13, .cls-14, .cls-15, .cls-16, .cls-17, .cls-18, .cls-19, .cls-7, .cls-8 {
        fill: #fff;
      }

      .cls-8 {
        stroke: #5d1414;
      }

      .cls-20, .cls-21, .cls-9 {
        stroke: #fff;
      }

      .cls-10, .cls-19 {
        stroke: #454644;
      }

      .cls-10, .cls-12, .cls-13, .cls-15, .cls-16 {
        stroke-width: 2px;
      }

      .cls-11, .cls-15 {
        stroke: #1b3e2e;
      }

      .cls-11, .cls-17, .cls-18, .cls-19, .cls-20 {
        stroke-width: 3px;
      }

      .cls-12, .cls-18 {
        stroke: #165871;
      }

      .cls-13, .cls-17 {
        stroke: #4d0303;
      }

      .cls-16 {
        stroke: #070134;
      }

      .cls-21 {
        stroke-width: 4px;
      }

      .cls-22, .cls-24 {
        stroke: none;
      }
    </style>
  </defs>
  <g id="Group_17" data-name="Group 17" transform="translate(-371 -237)">
    <line id="Line_28" data-name="Line 28" class="cls-1" x1="8.084" y2="75.791" transform="translate(432.138 378.981)"/>
    <line id="Line_29" data-name="Line 29" class="cls-1" x2="32.337" y2="51.538" transform="translate(613.025 462.856)"/>
    <line id="Line_30" data-name="Line 30" class="cls-1" y1="41.432" x2="38.401" transform="translate(790.881 401.213)"/>
    <line id="Line_31" data-name="Line 31" class="cls-1" x2="30.316" y2="21.221" transform="translate(817.155 562.9)"/>
    <line id="Line_32" data-name="Line 32" class="cls-1" y1="26.274" x2="48.506" transform="translate(823.218 488.12)"/>
    <line id="Line_33" data-name="Line 33" class="cls-1" x1="11.116" y2="44.464" transform="translate(776.733 447.698)"/>
    <line id="Line_34" data-name="Line 34" class="cls-1" x2="35.369" y2="59.622" transform="translate(532.182 352.707)"/>
    <line id="Line_35" data-name="Line 35" class="cls-1" x1="75.791" y2="50.527" transform="translate(491.76 452.751)"/>
    <line id="Line_36" data-name="Line 36" class="cls-1" y1="18.19" x2="15.158" transform="translate(474.581 457.804)"/>
    <line id="Line_37" data-name="Line 37" class="cls-1" x1="21.221" y1="27.285" transform="translate(428.096 448.709)"/>
    <line id="Line_38" data-name="Line 38" class="cls-1" x2="45.474" y2="34.358" transform="translate(472.56 521.468)"/>
    <line id="Line_39" data-name="Line 39" class="cls-1" x2="42.443" y2="42.443" transform="translate(829.281 369.886)"/>
    <line id="Line_40" data-name="Line 40" class="cls-1" x2="54.569" y2="39.411" transform="translate(716.101 247.611)"/>
    <line id="Line_41" data-name="Line 41" class="cls-1" y1="29.306" x2="10.105" transform="translate(634.247 336.539)"/>
    <path id="Path_691" data-name="Path 691" class="cls-1" d="M1.485,72.621,51.326,48.506,78.807,0" transform="translate(657.505 341.591)"/>
    <line id="Line_42" data-name="Line 42" class="cls-1" x2="61.643" y2="54.569" transform="translate(663.552 448.709)"/>
    <line id="Line_43" data-name="Line 43" class="cls-1" x1="80.843" y1="29.306" transform="translate(451.338 322.391)"/>
    <line id="Line_44" data-name="Line 44" class="cls-1" x1="22.232" y1="43.453" transform="translate(382.621 267.822)"/>
    <circle id="Ellipse_33" data-name="Ellipse 33" class="cls-2" cx="56.085" cy="56.085" r="56.085" transform="translate(371 278.432)"/>
    <circle id="Ellipse_34" data-name="Ellipse 34" class="cls-3" cx="68.717" cy="68.717" r="68.717" transform="translate(543.803 352.202)"/>
    <circle id="Ellipse_35" data-name="Ellipse 35" class="cls-4" cx="42.443" cy="42.443" r="42.443" transform="translate(422.538 464.372)"/>
    <circle id="Ellipse_36" data-name="Ellipse 36" class="cls-5" cx="66.191" cy="66.191" r="66.191" transform="translate(704.479 464.372)"/>
    <circle id="Ellipse_37" data-name="Ellipse 37" class="cls-6" cx="87.917" cy="87.917" r="87.917" transform="translate(720.648 240.032)"/>
    <g id="Group_12" data-name="Group 12" transform="translate(791.386 308.344)">
      <path id="Path_208" data-name="Path 208" class="cls-7" d="M1161.562,1052.182a4.8,4.8,0,0,1,1.128,1.773,4.293,4.293,0,0,1,.484,1.934v25.63a1.571,1.571,0,0,1-.645,1.451,1.969,1.969,0,0,1-1.451.645H1131.1a1.571,1.571,0,0,1-1.451-.645,1.969,1.969,0,0,1-.645-1.451V1045.9a1.571,1.571,0,0,1,.645-1.451,1.969,1.969,0,0,1,1.451-.645h19.988a4.29,4.29,0,0,1,1.934.484,6.651,6.651,0,0,1,1.773,1.128Zm-9.994-5.481v8.382h8.382a2.622,2.622,0,0,0-.483-.967l-6.932-6.932A2.621,2.621,0,0,0,1151.567,1046.7Zm8.544,34.174v-22.89h-9.35a1.571,1.571,0,0,1-1.451-.645,1.969,1.969,0,0,1-.645-1.451v-9.349h-17.087v34.335Zm-20.633-19.989c.161-.161.322-.322.484-.322a.593.593,0,0,1,.484.161l1.128.806c.161.161.322.322.322.484a.592.592,0,0,1-.161.484l-4.03,5.481,4.03,5.481a.591.591,0,0,1,.161.484c0,.161-.161.322-.322.484l-1.128.806a.592.592,0,0,1-.484.161c-.161,0-.322-.161-.484-.322l-5-6.77a.72.72,0,0,1,0-.806Zm17.893,6.609a.72.72,0,0,1,0,.806l-5,6.77c-.161.161-.323.322-.484.322a.593.593,0,0,1-.484-.161l-1.128-.806c-.161-.161-.322-.322-.322-.484a.592.592,0,0,1,.161-.483l4.03-5.481-4.03-5.48a.593.593,0,0,1-.161-.484c0-.161.161-.322.322-.484l1.128-.806a.592.592,0,0,1,.484-.161c.161,0,.322.161.484.322Zm-13.863,10.317c-.161,0-.323-.161-.484-.322a.592.592,0,0,1-.161-.484l3.063-18.538c0-.161.161-.322.322-.484a.593.593,0,0,1,.484-.161l1.451.161c.161,0,.322.161.484.322a.592.592,0,0,1,.161.484l-3.063,18.537c0,.161-.161.322-.322.484a.592.592,0,0,1-.484.161Z" transform="translate(-1129 -1043.8)"/>
    </g>
    <g id="Group_13" data-name="Group 13" transform="translate(755.007 514.596)">
      <path id="Path_269" data-name="Path 269" class="cls-7" d="M485.856,682.9a16.09,16.09,0,0,1,7.928,2.094,16.758,16.758,0,0,1,5.834,5.834,14.653,14.653,0,0,1,2.094,7.928,16.09,16.09,0,0,1-2.094,7.928,16.758,16.758,0,0,1-5.834,5.834,14.652,14.652,0,0,1-7.928,2.094,16.09,16.09,0,0,1-7.928-2.094,15.594,15.594,0,0,1-5.834-5.834A14.652,14.652,0,0,1,470,698.757a16.091,16.091,0,0,1,2.094-7.928,16.759,16.759,0,0,1,5.834-5.834A14.652,14.652,0,0,1,485.856,682.9Zm5.684,10.77-.15.15a.522.522,0,0,1-.3.149l.15-.149c.15-.15,0-.15.15-.3s0-.15,0-.15c.15-.15.3-.15.449-.3s.6-.149,1.047-.3a.925.925,0,0,1,1.047.3.464.464,0,0,1,.15-.3l.3-.3a.463.463,0,0,0,.3-.15.522.522,0,0,0,.3-.149v-.449c-.15,0-.3,0-.3-.15a.549.549,0,0,1-.15-.449.146.146,0,0,1-.15.149c0-.149,0-.149-.15-.149h-.449a.529.529,0,0,1-.449-.449c0-.15,0-.3-.15-.3a.522.522,0,0,1-.15-.3l-.15-.15v-.3a.147.147,0,0,0-.15-.15h-.15a.146.146,0,0,0-.15.15l-.15.149-.15.15h-.9c.15,0,.15-.15,0-.3-.15,0-.3-.15-.3,0,.15,0,.15-.15.15-.3s-.15-.15-.15-.3h.15a.147.147,0,0,0-.15-.15c-.15,0-.15-.149-.3-.149a.522.522,0,0,1-.3-.15,3.045,3.045,0,0,0-.748-.149h-.748a.146.146,0,0,1-.15.149.463.463,0,0,0,.15.3v.3c0,.15,0,.15-.15.3s-.15.15-.15.3.15.15.3.3.3.3.15.449c0,.149-.15.149-.3.3s-.3.149-.3.3-.15.3,0,.449a.523.523,0,0,0,.15.3v.3c0,.15-.15,0-.15.15s-.15,0-.15,0h0a.55.55,0,0,1-.449-.15c-.15-.15-.15-.3-.3-.6s-.15-.6-.3-.6c-.3-.15-.449-.15-.6,0,0-.15-.3-.3-.9-.6a2.917,2.917,0,0,0-1.2-.15c.15,0,.15-.15,0-.3s-.3-.3-.449-.3c0-.15,0-.15.15-.3v-.3c0-.15.15-.3.3-.449l.15-.149c.15-.15.15-.15.15-.3v-.149c.449,0,.9,0,1.047-.3l.3-.3a.463.463,0,0,0,.15-.3c.15-.149.15-.149.3-.149a.464.464,0,0,1,.3.149.522.522,0,0,1,.3.15c.15,0,.3,0,.3-.3a.55.55,0,0,0-.15-.449c.15,0,.15-.15,0-.3a.147.147,0,0,0-.15-.15,1.131,1.131,0,0,0-.6.15c-.15,0-.15.15,0,.15a.147.147,0,0,0-.15.15l-.3.3a.463.463,0,0,1-.3-.15.463.463,0,0,0-.15-.3.523.523,0,0,0-.15-.3c-.15,0-.15.15-.3.3,0-.15,0-.15-.3-.3a.55.55,0,0,0-.449-.149c.3-.15.15-.3-.15-.6-.15,0-.3-.15-.449-.15a.55.55,0,0,0-.449.15c0,.15-.15.15-.15.3a.146.146,0,0,0,.15.149.146.146,0,0,1,.15.15.463.463,0,0,1,.3.15h.15c.15.15.3.3.15.3h-.15a.463.463,0,0,0-.3.15.146.146,0,0,0-.15.149v.6a.522.522,0,0,1-.15-.3.523.523,0,0,0-.15-.3c.15.15-.15.15-.449.15h-.9c-.15,0-.15,0-.3-.15v-.449h.15a.522.522,0,0,0-.3-.15l-.15-.15a5.67,5.67,0,0,0-1.945.9h.3a.463.463,0,0,0,.3-.15l.15-.149c.449-.15.748-.3.9-.15l.15-.15c.15.15.3.449.449.449h-.6c-.3.15-.449.15-.449.3a.464.464,0,0,1,.15.3.522.522,0,0,0-.3-.15l-.3-.3c-.15,0-.15-.15-.3-.15h-.449a14.568,14.568,0,0,0-4.936,4.637c.15.15.15.15.3.15l.15.149v.3h.3a.28.28,0,0,1,0,.449,6.842,6.842,0,0,1,.9.6l.449.449c0,.15,0,.3-.15.3l-.15-.15-.15-.15v.449a.522.522,0,0,0,.15.3c-.15,0-.15.15-.15.3v1.2h0a1.626,1.626,0,0,0,.15.748q.224.449.449.449-.224,0,.449.9l.15.149a.522.522,0,0,0,.3.15.463.463,0,0,0,.3.15.147.147,0,0,1,.15.15.655.655,0,0,1,.15.449c.15.3.15.449.3.449,0,.15,0,.15.15.449.15.149.3.3.15.449h0c0,.15.15.15.3.3s.3.15.3.3v.449c0,.15.15,0,.15,0a3.444,3.444,0,0,0-.449-1.346l-.3-.6a.522.522,0,0,1-.15-.3c0-.149,0-.3-.15-.3h.3a.146.146,0,0,1,.15.149h0v.3c0,.149.15.3.3.449s.15.3.3.449.15.3.3.3a1.148,1.148,0,0,1,.3.449c.15.15.15.3,0,.3a.55.55,0,0,1,.449.149c.15.15.3.3.3.449s.15.3.15.6a.655.655,0,0,0,.15.449c0,.15.15.15.15.3.15.15.15.15.3.15l.3.15.3.149a.655.655,0,0,0,.449.15c.3,0,.3.15.449.3a.522.522,0,0,1,.3.15h.6a1.134,1.134,0,0,1,.6.3q.224.449.449.449a2.011,2.011,0,0,0,1.2.3v.15c0,.149.15.149.15.3.15.149.15.149.15.3a.147.147,0,0,0,.15.149c0,.149.15.149.3.3l.3.3a.146.146,0,0,0,.15-.15.55.55,0,0,0,.15.449c.15.15.3.3.3.15.15,0,.3-.3.3-.6-.449.15-.748.15-1.047-.3v-.149c0-.149,0-.149-.15-.149v-.3h.3v-.3c0-.15,0-.15-.15-.3,0-.149-.15-.3-.3-.449s-.15-.3-.3-.3c0,.15-.15.15-.3.15a.523.523,0,0,1-.3-.15v.3h-.3v-.748a.463.463,0,0,1,.15-.3c0-.15.15-.15.15-.3s0-.15.15-.3c0-.15,0-.15-.15-.15h-.3c-.3,0-.449.15-.6.449v.149a.464.464,0,0,1-.15.3l-.15.149h-.449c-.3,0-.449,0-.449-.149a2.064,2.064,0,0,1-.449-.6,1.626,1.626,0,0,1-.15-.748v-1.047a.739.739,0,0,0-.15-.449l.15-.149.15-.149h.449v-.15h.9a.28.28,0,0,0,.449,0V699.8c0,.3.3.449.6.149a.522.522,0,0,0,.3.15c.15,0,.3,0,.3.15a.147.147,0,0,1,.15.15l.15.15h.15a.147.147,0,0,0,.15-.15c.15.15.15.3.3.449q.224.9.449.9h.3l.15-.149v-1.2c-.15,0-.3-.15-.449-.3v-.449c0-.149.15-.3.3-.449h.15c.15,0,.15-.15.3-.15s.15-.15.3-.15c.3-.3.449-.449.3-.748.15,0,.15,0,.3-.15h-.15l-.15-.149H489c.15,0,.15-.15,0-.3a.522.522,0,0,0,.15-.3.146.146,0,0,1,.15-.15.281.281,0,0,0,.449,0c.15-.15.15-.15,0-.3,0-.15.15-.15.449-.15.15,0,.3-.15.449-.15h.15v-.6a.523.523,0,0,1,.3-.15.523.523,0,0,0,.3-.15l.3-.3v-.149c.3,0,.449,0,.6-.3.15-.15.15-.3-.15-.449v-.15c-.15,0-.15-.149-.3-.149h.449c.15-.15.15-.3-.15-.3C492.139,693.371,491.84,693.521,491.541,693.67Zm-3.44,18.25a13.059,13.059,0,0,0,7.33-3.889.464.464,0,0,1-.3-.149h-.3a1.157,1.157,0,0,0-.449-.15v-.3a.147.147,0,0,0-.15-.15.522.522,0,0,0-.3-.149c-.15,0-.15-.15-.3-.15a.146.146,0,0,1-.15-.149l-.15-.15a.146.146,0,0,1-.15-.149h-.748a1.366,1.366,0,0,0-.748-.449.463.463,0,0,1-.3-.15.146.146,0,0,1-.15-.149h-.15a.464.464,0,0,0-.3.149.523.523,0,0,0-.149.3v.3c-.15,0-.15-.15,0-.3a.281.281,0,0,0,0-.449.147.147,0,0,0-.15-.15.463.463,0,0,0-.3.15.522.522,0,0,1-.3.149l-.15.15a1036.127,1036.127,0,0,0-.3.3.522.522,0,0,0-.15.3c0,.15-.15.15-.15.3a.522.522,0,0,0-.3-.149c-.15,0-.15,0-.15-.15a1.627,1.627,0,0,0,.15.748c.15.3,0,.6.15.748a.925.925,0,0,1-.3,1.047c-.3.3-.6.6-.6.9s0,.449.3.6a.55.55,0,0,1-.15.449.55.55,0,0,0-.15.449S488.1,711.771,488.1,711.92Z" transform="translate(-470 -682.9)"/>
    </g>
    <g id="Group_14" data-name="Group 14" transform="translate(449.115 492.263)">
      <path id="Path_134" data-name="Path 134" class="cls-7" d="M631.691,2025.309a4.032,4.032,0,1,0-1.18,2.949A4.411,4.411,0,0,0,631.691,2025.309Zm12.5,8.375a1.953,1.953,0,0,0-.59-1.416,1.868,1.868,0,0,0-1.415-.59,1.953,1.953,0,0,0-1.416.59,1.868,1.868,0,0,0-.59,1.416,2.484,2.484,0,0,0,.59,1.533,2.241,2.241,0,0,0,1.533.59,2.482,2.482,0,0,0,1.533-.59A5.844,5.844,0,0,0,644.2,2033.685Zm0-16.75a1.954,1.954,0,0,0-.59-1.416,1.868,1.868,0,0,0-1.415-.59,1.953,1.953,0,0,0-1.416.59,1.869,1.869,0,0,0-.59,1.416,2.483,2.483,0,0,0,.59,1.533,2.241,2.241,0,0,0,1.533.59,2.482,2.482,0,0,0,1.533-.59A5.842,5.842,0,0,0,644.2,2016.934Zm-6.252,6.842v3.067a.434.434,0,0,1-.118.354c-.118.118-.118.118-.236.118l-2.477.354a8.959,8.959,0,0,1-.472,1.3c.354.472.826,1.18,1.416,1.887a.591.591,0,0,1,0,.708,11.843,11.843,0,0,1-1.3,1.416c-.59.59-1.062.944-1.3.944a.433.433,0,0,1-.354-.118l-1.887-1.415a4.228,4.228,0,0,1-1.3.472,19.947,19.947,0,0,1-.354,2.477c-.118.236-.236.354-.472.354h-3.067a.434.434,0,0,1-.354-.118c-.118-.118-.118-.118-.118-.236l-.354-2.477a4.942,4.942,0,0,1-1.18-.472l-1.887,1.416a.59.59,0,0,1-.708,0,10.115,10.115,0,0,1-2.359-2.6.433.433,0,0,1,.118-.354c.118-.118.354-.472.708-.826s.59-.708.826-.944a11.45,11.45,0,0,1-.59-1.3l-2.477-.354a.412.412,0,0,1-.236-.118.433.433,0,0,1-.118-.354v-3.067a.434.434,0,0,1,.118-.354c.118-.118.118-.118.236-.118l2.477-.354a8.947,8.947,0,0,1,.472-1.3c-.354-.472-.826-1.18-1.416-1.887a.59.59,0,0,1,0-.708,11.842,11.842,0,0,1,1.3-1.416c.708-.59,1.062-.944,1.3-.944a.433.433,0,0,1,.354.118l1.887,1.415a4.226,4.226,0,0,1,1.3-.472,19.984,19.984,0,0,1,.354-2.477c.118-.236.236-.354.472-.354h3.067a.434.434,0,0,1,.354.118.365.365,0,0,1,.118.236l.354,2.477a4.922,4.922,0,0,1,1.18.472l1.887-1.416a.589.589,0,0,1,.708,0,10.118,10.118,0,0,1,2.359,2.595.434.434,0,0,1-.118.354c-.118.118-.354.472-.708.826a9.38,9.38,0,0,0-.708.944,11.508,11.508,0,0,1,.59,1.3l2.477.354a.412.412,0,0,1,.236.118C637.943,2023.658,637.943,2023.658,637.943,2023.776Zm10.381,8.729v2.241c0,.118-.826.354-2.477.472a2.956,2.956,0,0,1-.472.826,7.451,7.451,0,0,1,.826,2.241.116.116,0,0,1-.118.118c-1.3.826-2.005,1.18-2.005,1.18-.118,0-.354-.236-.708-.826a4.289,4.289,0,0,1-.826-1.062H641.6c-.118.236-.472.59-.826,1.062a6.1,6.1,0,0,0-.708.826s-.708-.354-2.005-1.18l-.118-.118a7.448,7.448,0,0,1,.826-2.241,2.962,2.962,0,0,1-.472-.826c-1.651-.118-2.477-.354-2.477-.472V2032.5c0-.118.826-.354,2.477-.472a5.127,5.127,0,0,1,.472-.825,7.446,7.446,0,0,1-.826-2.241.116.116,0,0,1,.118-.118,6.09,6.09,0,0,0,.59-.354,6.567,6.567,0,0,0,.944-.589,1.289,1.289,0,0,0,.472-.236q.177,0,.708.708c.354.472.708.826.826,1.062h.944a14.82,14.82,0,0,1,1.533-1.887h.118s.708.354,2.005,1.179l.118.118a7.448,7.448,0,0,1-.826,2.241,2.956,2.956,0,0,1,.472.826C647.616,2032.151,648.324,2032.387,648.324,2032.5Zm0-16.75V2018c0,.118-.826.354-2.477.472a2.957,2.957,0,0,1-.472.826,7.448,7.448,0,0,1,.826,2.241.116.116,0,0,1-.118.118c-1.3.825-2.005,1.18-2.005,1.18-.118,0-.354-.236-.708-.826s-.708-.826-.826-1.062H641.6c-.118.236-.472.59-.826,1.062a8.583,8.583,0,0,1-.708.826s-.708-.354-2.005-1.18l-.118-.118a7.445,7.445,0,0,1,.826-2.241,2.963,2.963,0,0,1-.472-.826c-1.651-.118-2.477-.354-2.477-.472v-2.241c0-.118.826-.354,2.477-.472a5.127,5.127,0,0,1,.472-.825,7.446,7.446,0,0,1-.826-2.241.116.116,0,0,1,.118-.118,6.135,6.135,0,0,0,.59-.354,6.61,6.61,0,0,0,.944-.59,1.3,1.3,0,0,0,.472-.236q.177,0,.708.708c.354.472.708.825.826,1.062h.944a14.843,14.843,0,0,1,1.533-1.887h.118s.708.354,2.005,1.18l.118.118a7.448,7.448,0,0,1-.826,2.241,2.951,2.951,0,0,1,.472.825C647.616,2015.519,648.324,2015.636,648.324,2015.754Z" transform="translate(-617.3 -2010.8)"/>
    </g>
    <g id="Group_15" data-name="Group 15" transform="translate(593.926 404.649)">
      <g id="Group_4" data-name="Group 4" transform="translate(0 0)">
        <path id="Path_165" data-name="Path 165" class="cls-7" d="M291.391,1970.228v-15.94a.49.49,0,0,0-.554-.554H260.2a.49.49,0,0,0-.554.554v15.94a.49.49,0,0,0,.554.555h30.633a.49.49,0,0,0,.554-.555Zm2.495-15.94v20.93a2.953,2.953,0,0,1-.97,2.218,3.27,3.27,0,0,1-2.218.97H280.3a7.155,7.155,0,0,0,.277,1.525,14.4,14.4,0,0,0,.554,1.386,5.459,5.459,0,0,1,.277.832,1.47,1.47,0,0,1-1.247,1.248h-9.841a1.47,1.47,0,0,1-1.247-1.248,5.434,5.434,0,0,1,.277-.832,14.4,14.4,0,0,0,.554-1.386,5.9,5.9,0,0,0,.277-1.525h-10.4a2.952,2.952,0,0,1-2.218-.97,3.271,3.271,0,0,1-.97-2.218v-20.93a2.953,2.953,0,0,1,.97-2.218,3.272,3.272,0,0,1,2.218-.97h30.633a2.953,2.953,0,0,1,2.218.97A2.374,2.374,0,0,1,293.886,1954.288Z" transform="translate(-256.6 -1951.1)"/>
      </g>
      <g id="Ellipse_13" data-name="Ellipse 13" class="cls-8" transform="translate(16.494 20.93)">
        <circle class="cls-22" cx="2.079" cy="2.079" r="2.079"/>
        <circle class="cls-23" cx="2.079" cy="2.079" r="1.579"/>
      </g>
    </g>
    <g id="Ellipse_38" data-name="Ellipse 38" class="cls-9" transform="translate(372.011 279.443)">
      <circle class="cls-22" cx="55.075" cy="55.075" r="55.075"/>
      <circle class="cls-23" cx="55.075" cy="55.075" r="54.575"/>
    </g>
    <g id="Ellipse_39" data-name="Ellipse 39" class="cls-9" transform="translate(545.824 353.213)">
      <ellipse class="cls-22" cx="66.696" cy="67.201" rx="66.696" ry="67.201"/>
      <ellipse class="cls-23" cx="66.696" cy="67.201" rx="66.196" ry="66.701"/>
    </g>
    <g id="Ellipse_40" data-name="Ellipse 40" class="cls-9" transform="translate(721.659 241.042)">
      <circle class="cls-22" cx="86.907" cy="86.907" r="86.907"/>
      <circle class="cls-23" cx="86.907" cy="86.907" r="86.407"/>
    </g>
    <g id="Ellipse_41" data-name="Ellipse 41" class="cls-9" transform="translate(423.548 465.383)">
      <circle class="cls-22" cx="41.432" cy="41.432" r="41.432"/>
      <circle class="cls-23" cx="41.432" cy="41.432" r="40.932"/>
    </g>
    <g id="Ellipse_42" data-name="Ellipse 42" class="cls-9" transform="translate(705.49 465.383)">
      <circle class="cls-22" cx="65.18" cy="65.18" r="65.18"/>
      <circle class="cls-23" cx="65.18" cy="65.18" r="64.68"/>
    </g>
    <g id="Ellipse_43" data-name="Ellipse 43" class="cls-10" transform="translate(375.042 260.242)">
      <circle class="cls-22" cx="7.579" cy="7.579" r="7.579"/>
      <circle class="cls-23" cx="7.579" cy="7.579" r="6.579"/>
    </g>
    <g id="Ellipse_44" data-name="Ellipse 44" class="cls-11" transform="translate(517.529 335.023)">
      <circle class="cls-22" cx="14.148" cy="14.148" r="14.148"/>
      <circle class="cls-23" cx="14.148" cy="14.148" r="12.648"/>
    </g>
    <g id="Ellipse_45" data-name="Ellipse 45" class="cls-12" transform="translate(637.784 322.896)">
      <circle class="cls-22" cx="7.579" cy="7.579" r="7.579"/>
      <circle class="cls-23" cx="7.579" cy="7.579" r="6.579"/>
    </g>
    <g id="Ellipse_46" data-name="Ellipse 46" class="cls-13" transform="translate(705.49 237)">
      <circle class="cls-22" cx="10.105" cy="10.105" r="10.105"/>
      <circle class="cls-23" cx="10.105" cy="10.105" r="9.105"/>
    </g>
    <g id="Path_692" data-name="Path 692" class="cls-14" transform="translate(868.187 407.782)">
      <path class="cls-22" d="M 8.084346771240234 15.16869640350342 C 4.178026676177979 15.16869640350342 0.9999967813491821 11.99066638946533 0.9999967813491821 8.084346771240234 C 0.9999967813491821 4.178026676177979 4.178026676177979 0.9999967813491821 8.084346771240234 0.9999967813491821 C 11.99066638946533 0.9999967813491821 15.16869640350342 4.178026676177979 15.16869640350342 8.084346771240234 C 15.16869640350342 11.99066638946533 11.99066638946533 15.16869640350342 8.084346771240234 15.16869640350342 Z"/>
      <path class="cls-24" d="M 8.084346771240234 1.999997138977051 C 4.729426383972168 1.999997138977051 1.999997138977051 4.729426383972168 1.999997138977051 8.084346771240234 C 1.999997138977051 11.43926620483398 4.729426383972168 14.16869640350342 8.084346771240234 14.16869640350342 C 11.43926620483398 14.16869640350342 14.16869640350342 11.43926620483398 14.16869640350342 8.084346771240234 C 14.16869640350342 4.729426383972168 11.43926620483398 1.999997138977051 8.084346771240234 1.999997138977051 M 8.084346771240234 -3.814697265625e-06 C 12.54920673370361 -3.814697265625e-06 16.16869735717773 3.619486808776855 16.16869735717773 8.084346771240234 C 16.16869735717773 12.54920673370361 12.54920673370361 16.16869735717773 8.084346771240234 16.16869735717773 C 3.619486808776855 16.16869735717773 -3.814697265625e-06 12.54920673370361 -3.814697265625e-06 8.084346771240234 C -3.814697265625e-06 3.619486808776855 3.619486808776855 -3.814697265625e-06 8.084346771240234 -3.814697265625e-06 Z"/>
    </g>
    <g id="Ellipse_48" data-name="Ellipse 48" class="cls-13" transform="translate(421.527 441.13)">
      <circle class="cls-22" cx="10.611" cy="10.611" r="10.611"/>
      <circle class="cls-23" cx="10.611" cy="10.611" r="9.611"/>
    </g>
    <g id="Ellipse_49" data-name="Ellipse 49" class="cls-15" transform="translate(482.16 450.225)">
      <circle class="cls-22" cx="7.579" cy="7.579" r="7.579"/>
      <circle class="cls-23" cx="7.579" cy="7.579" r="6.579"/>
    </g>
    <g id="Ellipse_50" data-name="Ellipse 50" class="cls-16" transform="translate(508.434 545.216)">
      <circle class="cls-22" cx="12.127" cy="12.127" r="12.127"/>
      <circle class="cls-23" cx="12.127" cy="12.127" r="11.127"/>
    </g>
    <g id="Ellipse_51" data-name="Ellipse 51" class="cls-12" transform="translate(776.228 424.961)">
      <circle class="cls-22" cx="14.148" cy="14.148" r="14.148"/>
      <circle class="cls-23" cx="14.148" cy="14.148" r="13.148"/>
    </g>
    <g id="Ellipse_52" data-name="Ellipse 52" class="cls-15" transform="translate(864.145 480.541)">
      <circle class="cls-22" cx="7.579" cy="7.579" r="7.579"/>
      <circle class="cls-23" cx="7.579" cy="7.579" r="6.579"/>
    </g>
    <g id="Ellipse_53" data-name="Ellipse 53" class="cls-17" transform="translate(833.829 570.479)">
      <circle class="cls-22" cx="12.127" cy="12.127" r="12.127"/>
      <circle class="cls-23" cx="12.127" cy="12.127" r="10.627"/>
    </g>
    <g id="Ellipse_54" data-name="Ellipse 54" class="cls-18" transform="translate(633.741 502.773)">
      <circle class="cls-22" cx="12.127" cy="12.127" r="12.127"/>
      <circle class="cls-23" cx="12.127" cy="12.127" r="10.627"/>
    </g>
    <g id="Ellipse_55" data-name="Ellipse 55" class="cls-19" transform="translate(702.458 380.497)">
      <circle class="cls-22" cx="7.579" cy="7.579" r="7.579"/>
      <circle class="cls-23" cx="7.579" cy="7.579" r="6.079"/>
    </g>
    <g id="Group_16" data-name="Group 16" transform="translate(412.432 319.865)">
      <g id="Ellipse_32" data-name="Ellipse 32" class="cls-20" transform="translate(0 0)">
        <circle class="cls-22" cx="10.794" cy="10.794" r="10.794"/>
        <circle class="cls-23" cx="10.794" cy="10.794" r="9.294"/>
      </g>
      <line id="Line_27" data-name="Line 27" class="cls-21" x2="11.194" y2="11.194" transform="translate(17.19 17.19)"/>
    </g>
  </g>
</svg>
